<svg xmlns="http://www.w3.org/2000/svg" version="1.0" width="626.000000pt" height="626.000000pt" viewBox="0 0 626.000000 626.000000" preserveAspectRatio="xMidYMid meet" class="mdl-js">

<g transform="translate(0.000000,626.000000) scale(0.100000,-0.100000)" fill="#000000" stroke="none">
<path fill="rgb(209 213 219)" d="M0 4545 l0 -1674 93 -3 92 -3 3 -62 3 -63 1240 0 1239 0 -2 -1162 -3 -1163 -173 -5 -172 -5 -2 -180 -1 -180 811 -3 812 -2 0 185 0 185 -172 2 -173 3 -3 1163 -2 1162 1239 0 1240 0 3 63 3 62 93 3 92 3 0 1674 0 1675 -3130 0 -3130 0 0 -1675z m6060 50 l0 -1425 -315 0 -315 0 0 40 c0 31 5 43 26 57 95 64 149 160 142 252 -10 145 -125 251 -271 251 -138 0 -256 -121 -257 -262 0 -100 42 -170 145 -241 21 -15 26 -25 23 -55 l-3 -37 -1002 -3 -1003 -2 0 44 c0 37 4 46 28 61 126 80 170 218 110 345 -31 64 -61 93 -132 126 -92 43 -208 24 -291 -47 -14 -13 -38 -49 -53 -79 -60 -127 -16 -265 111 -345 23 -15 27 -24 27 -61 l0 -44 -1040 0 -1040 0 0 49 c0 44 3 50 29 60 71 30 134 132 134 220 1 78 -17 130 -59 179 -129 151 -363 117 -445 -62 -25 -55 -25 -157 0 -211 22 -48 64 -95 109 -121 29 -17 32 -23 32 -66 l0 -48 -275 0 -275 0 0 1425 0 1425 2930 0 2930 0 0 -1425z"/>
<path fill="rgb(209 213 219)" d="M1126 5593 c-35 -101 -83 -235 -107 -298 -10 -27 -89 -248 -175 -490 -86 -242 -172 -483 -191 -535 -19 -52 -45 -126 -58 -165 -13 -38 -27 -78 -30 -88 -7 -16 4 -17 176 -15 l183 3 55 168 56 167 310 -2 310 -3 55 -167 54 -168 188 0 c103 0 188 2 188 4 0 2 -7 23 -16 47 -9 24 -40 112 -69 194 -29 83 -90 254 -135 380 -45 127 -90 255 -100 285 -10 30 -37 107 -60 170 -23 63 -52 144 -64 180 -26 74 -60 171 -109 310 l-34 95 -200 3 -200 2 -27 -77z m274 -460 c56 -178 137 -430 149 -465 5 -15 6 -29 3 -32 -3 -3 -97 -6 -209 -6 -174 0 -203 2 -203 15 0 8 43 147 96 308 52 160 97 298 99 305 10 30 24 3 65 -125z"/>
<path fill="rgb(209 213 219)" d="M3130 5379 l0 -291 -55 56 c-98 99 -208 135 -353 116 -186 -25 -307 -111 -390 -280 -56 -114 -75 -205 -76 -375 -1 -129 2 -161 22 -230 54 -187 170 -324 328 -386 88 -34 245 -33 330 2 72 30 122 69 167 127 l32 44 3 -81 3 -81 159 0 160 0 0 835 0 835 -165 0 -165 0 0 -291z m-176 -414 c57 -24 111 -79 142 -147 28 -61 29 -69 29 -213 0 -141 -2 -153 -26 -205 -55 -116 -125 -163 -243 -163 -153 0 -241 97 -267 293 -26 195 38 371 156 429 50 25 156 28 209 6z"/>
</g>
</svg>