<svg xmlns="http://www.w3.org/2000/svg" version="1.0" width="474.000000pt" height="473.000000pt" viewBox="0 0 474.000000 473.000000" preserveAspectRatio="xMidYMid meet" class="mdl-js">

<g transform="translate(0.000000,473.000000) scale(0.100000,-0.100000)" fill="#000000" stroke="none">
<path fill="rgb(209 213 219)" d="M2268 4723 c-1 -5 -27 -19 -57 -33 -151 -69 -246 -253 -212 -409 26 -123 105 -227 210 -279 51 -24 66 -27 166 -27 102 0 114 2 168 29 71 36 140 108 175 184 24 50 27 69 27 162 0 99 -2 110 -33 172 -39 80 -90 127 -188 174 -64 31 -79 34 -162 34 -49 0 -92 -3 -94 -7z m212 -217 c51 -34 80 -90 80 -156 0 -117 -85 -196 -201 -188 -163 12 -236 208 -118 320 22 21 54 42 72 47 53 17 122 7 167 -23z"/>
<path fill="rgb(209 213 219)" d="M869 4136 c-103 -28 -193 -106 -244 -211 -26 -54 -29 -70 -30 -160 0 -93 2 -105 32 -166 39 -79 102 -140 181 -177 51 -24 69 -27 167 -27 97 0 115 3 155 24 65 35 156 126 186 187 23 46 26 66 26 157 0 91 -3 112 -25 160 -77 169 -270 261 -448 213z m182 -204 c62 -32 95 -76 104 -136 13 -86 -26 -164 -99 -197 -74 -34 -155 -22 -209 29 -77 73 -88 175 -28 251 66 83 142 100 232 53z"/>
<path fill="rgb(209 213 219)" d="M3673 4135 c-104 -32 -186 -103 -236 -205 -30 -60 -32 -72 -32 -165 0 -90 3 -106 29 -160 38 -77 111 -149 184 -183 74 -34 193 -42 274 -18 264 77 355 417 167 621 -92 99 -264 149 -386 110z m202 -206 c105 -71 123 -194 42 -285 -41 -48 -77 -64 -139 -64 -135 0 -222 127 -174 253 19 49 67 99 111 116 46 16 119 7 160 -20z"/>
<path fill="rgb(209 213 219)" d="M2331 3756 c-46 -25 -50 -48 -51 -248 l0 -187 -37 -10 c-21 -5 -66 -17 -100 -26 -89 -22 -212 -76 -284 -124 -34 -23 -64 -41 -68 -41 -4 0 -18 12 -32 26 -13 15 -77 75 -141 135 -104 97 -121 109 -153 109 -53 0 -85 -36 -85 -94 0 -44 4 -50 93 -143 186 -196 181 -189 151 -214 -17 -14 -83 -140 -115 -222 -12 -29 -31 -92 -44 -142 l-23 -90 -203 -5 -203 -5 -23 -34 c-32 -47 -29 -71 15 -114 l38 -37 191 0 191 0 22 -97 c29 -124 65 -212 128 -311 l50 -79 -95 -94 c-143 -141 -173 -182 -173 -234 0 -35 5 -48 26 -64 37 -29 85 -27 126 6 18 14 83 76 145 136 l111 110 57 -37 c87 -58 197 -105 314 -134 58 -15 107 -27 108 -28 2 0 7 -90 12 -199 9 -193 10 -199 35 -224 32 -32 87 -34 117 -4 28 28 38 85 39 224 0 64 3 136 6 161 l6 45 67 12 c88 16 249 81 339 138 40 25 75 44 77 42 2 -2 57 -56 122 -120 65 -63 129 -123 143 -132 63 -43 140 -3 140 73 0 44 -5 50 -160 213 -47 49 -89 97 -94 107 -6 13 0 30 23 64 55 80 111 208 138 319 l27 107 165 0 c91 0 183 5 203 10 75 21 103 103 52 153 l-26 27 -196 2 -195 3 -27 100 c-15 55 -34 118 -43 140 -25 68 -84 180 -113 214 l-27 33 120 121 c142 144 153 159 153 210 0 51 -35 87 -84 87 -30 0 -49 -11 -113 -69 -43 -38 -107 -99 -143 -135 -35 -36 -68 -66 -72 -66 -5 0 -34 18 -66 40 -32 21 -94 54 -138 73 -72 30 -112 43 -241 77 l-43 11 0 162 c-1 186 -9 233 -45 265 -29 25 -59 28 -94 8z m219 -653 c228 -53 445 -255 519 -484 45 -138 45 -318 0 -452 -40 -120 -88 -197 -184 -293 -76 -76 -105 -98 -185 -138 -127 -62 -212 -80 -360 -73 -133 7 -193 22 -310 83 -198 102 -342 299 -381 519 -14 83 -7 237 16 327 25 95 89 209 163 289 190 206 449 285 722 222z"/>
<path fill="rgb(209 213 219)" d="M305 2736 c-112 -28 -206 -102 -254 -198 -17 -34 -31 -67 -31 -75 0 -7 -4 -13 -10 -13 -6 0 -10 -35 -10 -85 0 -50 4 -85 10 -85 6 0 10 -6 10 -12 0 -30 52 -121 94 -166 84 -89 203 -129 336 -110 213 29 350 227 310 448 -14 75 -29 109 -77 168 -85 104 -251 161 -378 128z m177 -207 c55 -28 98 -102 98 -168 0 -42 -42 -118 -83 -150 -70 -55 -156 -51 -228 9 -95 77 -91 221 6 296 60 46 132 50 207 13z"/>
<path fill="rgb(209 213 219)" d="M4282 2739 c-107 -20 -215 -107 -269 -218 -25 -50 -28 -67 -28 -156 0 -93 2 -105 32 -166 39 -79 97 -136 184 -179 60 -31 65 -32 168 -28 86 3 115 8 154 27 70 35 140 102 173 168 16 32 32 60 37 61 9 5 9 222 -1 222 -4 0 -15 22 -25 49 -36 102 -163 202 -275 216 -92 11 -108 12 -150 4z m185 -215 c116 -86 106 -265 -18 -330 -36 -18 -142 -18 -177 0 -60 31 -102 104 -102 176 0 59 33 116 88 151 43 28 53 30 114 27 48 -3 75 -9 95 -24z"/>
<path fill="rgb(209 213 219)" d="M857 1326 c-65 -18 -150 -78 -193 -137 -55 -76 -77 -149 -72 -244 8 -146 88 -268 217 -329 60 -28 75 -31 166 -31 90 0 105 3 155 28 73 38 141 106 182 181 31 58 33 67 33 161 0 87 -4 107 -27 158 -35 75 -117 160 -186 194 -45 22 -72 28 -141 30 -51 2 -106 -3 -134 -11z m224 -210 c47 -32 69 -72 76 -140 6 -67 -25 -129 -85 -171 -37 -26 -53 -30 -107 -30 -56 0 -68 4 -102 31 -126 102 -104 278 42 332 47 18 131 7 176 -22z"/>
<path fill="rgb(209 213 219)" d="M3675 1331 c-78 -19 -179 -104 -235 -197 -34 -56 -35 -62 -35 -159 0 -124 13 -168 73 -247 86 -114 243 -171 383 -138 142 34 230 116 280 262 51 152 -9 330 -144 422 -82 56 -222 81 -322 57z m185 -203 c92 -47 135 -161 92 -244 -70 -136 -228 -151 -326 -30 -28 34 -31 45 -31 105 0 57 4 74 28 110 51 77 151 102 237 59z"/>
<path fill="rgb(209 213 219)" d="M2237 736 c-112 -47 -192 -130 -223 -232 -31 -102 -15 -245 37 -330 39 -64 158 -154 204 -154 8 0 15 -4 15 -10 0 -6 42 -10 105 -10 58 0 105 4 105 9 0 5 12 12 27 16 77 19 161 95 211 190 22 42 27 67 30 153 4 100 3 105 -29 170 -40 82 -106 149 -184 187 -49 24 -74 30 -149 32 -78 3 -99 0 -149 -21z m196 -177 c50 -13 103 -61 118 -106 16 -51 7 -147 -18 -181 -84 -114 -277 -100 -329 25 -18 42 -18 137 0 171 43 83 131 118 229 91z"/>
</g>
</svg>