<svg xmlns="http://www.w3.org/2000/svg" version="1.0" width="1042.000000pt" height="1042.000000pt" viewBox="0 0 1042.000000 1042.000000" preserveAspectRatio="xMidYMid meet" class="mdl-js">

<g transform="translate(0.000000,1042.000000) scale(0.100000,-0.100000)" fill="#000000" stroke="none">
<path fill="rgb(209 213 219)" d="M4594 9241 c-62 -28 -97 -80 -102 -152 -3 -36 1 -72 9 -92 7 -17 124 -149 259 -293 135 -143 299 -319 365 -389 491 -528 1482 -1570 1508 -1586 31 -18 59 -19 865 -19 l833 0 218 -210 218 -209 6 -152 c4 -84 7 -412 7 -731 l0 -578 -42 0 c-25 0 -57 -8 -75 -19 -63 -39 -134 -172 -181 -339 -26 -94 -27 -104 -27 -367 l0 -270 28 -57 c16 -32 47 -73 69 -92 70 -60 111 -68 330 -64 188 3 194 4 250 31 61 30 108 80 134 143 22 53 21 506 -2 604 -56 245 -158 416 -256 429 l-43 6 -5 767 -5 768 -162 162 c-90 90 -163 166 -163 170 0 4 274 9 608 10 l609 3 41 29 c78 54 104 161 59 241 -15 26 -323 312 -897 833 -1489 1350 -1373 1248 -1422 1260 -33 9 -2905 184 -2978 182 -8 0 -34 -9 -56 -19z"/>
<path fill="rgb(209 213 219)" d="M1445 6775 c-5 -2 -22 -6 -37 -9 -34 -8 -94 -59 -114 -97 -12 -24 -14 -300 -14 -2022 l0 -1993 29 -45 c17 -27 44 -53 67 -65 38 -19 103 -19 3299 -22 2443 -2 3270 0 3300 9 56 16 92 44 115 89 20 38 20 64 20 1260 0 1053 -2 1220 -14 1220 -8 0 -46 -7 -84 -15 -38 -7 -128 -20 -200 -26 l-132 -13 0 -1113 0 -1113 -2985 0 -2985 0 0 1830 0 1830 1450 0 c798 0 1450 1 1450 3 0 2 -16 36 -36 75 -28 58 -63 174 -64 215 0 7 -3044 9 -3065 2z"/>
<path fill="rgb(209 213 219)" d="M637 2370 c-62 -11 -97 -34 -97 -64 0 -35 245 -325 313 -371 28 -20 81 -44 116 -55 62 -20 107 -20 3710 -20 2565 0 3665 3 3706 11 132 24 166 51 359 282 124 148 130 168 61 202 -40 20 -61 20 -4080 21 -2222 1 -4062 -2 -4088 -6z"/>
</g>
</svg>