<svg xmlns="http://www.w3.org/2000/svg" xmlns:xlink="http://www.w3.org/1999/xlink" version="1.1" id="Capa_1" x="0px" y="0px" viewBox="0 0 296.965 296.965" style="enable-background:new 0 0 296.965 296.965;" xml:space="preserve" class="mdl-js">
<path fill="rgb(209 213 219)" d="M209.064,188.476h-20.916v-4.671l35.101-0.468c2.925-0.039,5.731-1.799,6.877-4.488c0.585-1.37,13.631-32.291,10.19-66.672  c5.871-1.08,11.193-5.26,14.539-11.653c5.19-9.916,6.205-27.08-6.579-45.514c-7.903-11.395-17.643-23.532-30.604-33.503l4.291-5.547  c2.496-3.228,1.903-7.868-1.325-10.363c-3.229-2.493-7.868-1.9-10.363,1.329l-4.946,6.402C191.057,5.292,173.509,0,151.464,0  c-4.461,0-9.112,0.218-13.824,0.643C106.918,3.41,91.97,17.809,85.794,26.142c-6.199,8.364-8.975,17.81-7.426,25.246  c0.499,2.394,1.218,4.565,2.106,6.554c-11.853,13.065-20.983,33.366-24.682,47.7c-8.574,33.222,15.61,72.559,16.645,74.217  c1.327,2.129,3.679,3.439,6.188,3.479l30.524,0.479v4.66H87.9c-29.917,0-52.701,51.35-52.701,76.976  c0,2.865,1.655,5.541,4.249,6.758c40.206,18.874,78.116,24.757,109.662,24.756c16.605,0,31.45-1.604,43.933-3.798  c39.311-6.91,63.926-20.566,64.955-21.145c2.327-1.308,3.768-3.906,3.768-6.576C261.766,239.82,238.982,188.476,209.064,188.476z   M107.812,136.232c-0.86-1.942-2.517-3.421-4.544-4.057c-0.723-0.227-1.468-0.339-2.211-0.339c-0.868,0-1.731,0.153-2.551,0.454  c-1.346-0.929-4.191-3.682-6.178-9.308c-1.804-5.114-1.673-9.508-1.259-10.508h114.824c0.415,1,0.546,5.395-1.258,10.509  c-2.02,5.721-4.938,8.593-6.237,9.431c-1.511-0.479-3.149-0.531-4.666-0.006c-1.928,0.672-3.492,2.077-4.321,3.942  c-7.96,17.908-23.414,38.804-40.776,38.804C131.224,175.155,115.762,154.18,107.812,136.232z M97.666,34.929  c4.702-6.344,16.319-17.325,41.3-19.575c4.272-0.385,8.479-0.58,12.499-0.58c44.894,0,68.005,24.596,84.691,48.656  c9.026,13.015,8.839,24.155,5.654,30.241c-1.445,2.76-3.31,4.017-4.432,4.017c-0.95,0-1.934-0.947-2.436-1.511  c-0.729-0.82-1.479-1.681-2.258-2.574c-10.666-12.23-28.519-32.7-65.188-32.7c-4.277,0-8.763,0.213-13.335,0.766  c-10.439,1.261-19.242,1.808-26.912,1.808c-0.002,0-0.004,0-0.005,0c-31.233,0-33.46-10.624-34.41-15.188  C92.293,45.69,93.574,40.45,97.666,34.929z M83.052,168.628c-5.214-9.518-18.665-37.094-12.936-59.295  c3.182-12.329,10.748-28.942,19.837-39.756c12.166,8.86,29.917,8.898,37.292,8.898c0.003,0,0.004,0,0.006,0  c8.269,0,17.653-0.693,28.685-2.026c3.985-0.481,7.875-0.759,11.562-0.759c29.95,0,43.881,15.967,54.053,27.63  c0.811,0.931,1.592,1.823,2.35,2.675c0.582,0.656,1.2,1.246,1.833,1.809c3.299,24.757-4.395,51.204-7.729,60.827l-29.856,0.396  v-3.038c5-5.914,8.945-12.435,12.195-18.974c7.23-1.309,14.248-8.63,18.046-19.392c4.851-13.75,2.119-26.169-6.618-29.76  c-0.891-0.366-1.755-0.389-2.718-0.389H87.91c-0.963,0-1.917,0.022-2.808,0.389c-8.735,3.589-11.557,16.09-6.708,29.841  c3.873,10.976,10.908,18.345,18.261,19.485c3.4,6.826,7.493,13.583,12.493,19.688v2.16L83.052,168.628z M116.467,203.476  c4.081,0,6.682-3.251,6.682-7.332v-14.908c8,5.348,16.17,8.679,25.16,8.679c9.26,0,16.84-3.534,24.84-9.176v15.405  c0,4.081,3.252,7.332,7.333,7.332h28.583c1.081,0,2.171,0.184,3.264,0.468c-1.978,2.966-6.946,6.648-15.402,9.877  c-12.822,4.896-30.027,7.601-48.443,7.601c-18.417,0-35.622-2.693-48.445-7.59c-8.456-3.229-13.423-6.923-15.401-9.889  c1.093-0.284,2.184-0.467,3.265-0.467H116.467z M189.891,278.735c-33.069,5.73-83.795,7.148-139.646-17.765  c1.679-15.321,11.019-36.781,22.104-48.658c10.57,15.728,43.516,23.892,76.134,23.892c32.617,0,65.561-8.164,76.132-23.892  c11.135,11.93,20.511,33.529,22.129,48.865C238.5,265.122,218.069,273.853,189.891,278.735z"/>
<g>
</g>
<g>
</g>
<g>
</g>
<g>
</g>
<g>
</g>
<g>
</g>
<g>
</g>
<g>
</g>
<g>
</g>
<g>
</g>
<g>
</g>
<g>
</g>
<g>
</g>
<g>
</g>
<g>
</g>
</svg>